<svg width="18" height="18" viewBox="0 0 18 18" fill="none" xmlns="http://www.w3.org/2000/svg">
<g clip-path="url(#clip0_671_498)">
<path d="M4.76467 3.17647V2.11558C4.76467 0.945969 5.71138 0 6.88373 0H14.2927C15.462 0 16.4117 0.949029 16.4117 2.11594V12.7076C16.4117 13.8773 15.465 14.8235 14.2927 14.8235H13.2352V15.884C13.2352 17.0538 12.2886 18 11.1162 18H3.70725C2.53764 18 1.5882 17.0519 1.5882 15.8844V5.29205C1.5882 4.12244 2.53491 3.17647 3.70725 3.17647H4.76467ZM12.1764 15.884V5.29241C12.1764 4.71044 11.7009 4.23529 11.1162 4.23529H3.70725C3.11949 4.23529 2.64701 4.70738 2.64701 5.29205V15.8844C2.64701 16.4668 3.12208 16.9412 3.70725 16.9412H11.1162C11.704 16.9412 12.1764 16.4689 12.1764 15.884ZM13.2353 13.7647H14.2927C14.8804 13.7647 15.3529 13.2925 15.3529 12.7076V2.11594C15.3529 1.53397 14.8774 1.05881 14.2927 1.05881H6.88373C6.29596 1.05881 5.82351 1.53094 5.82351 2.11558V3.17647H11.1162C12.2855 3.17647 13.2353 4.1255 13.2353 5.29241V13.7647ZM7.41174 11.1176C6.096 11.1176 5.02937 10.051 5.02937 8.73528C5.02937 7.41952 6.096 6.35292 7.41174 6.35292C8.72747 6.35292 9.7941 7.41952 9.7941 8.73528C9.7941 10.051 8.72747 11.1176 7.41174 11.1176ZM7.41174 10.0588C8.14271 10.0588 8.73526 9.46625 8.73526 8.73531C8.73526 8.00434 8.14268 7.41179 7.41174 7.41179C6.68079 7.41179 6.08822 8.00437 6.08822 8.73531C6.08822 9.46625 6.68076 10.0588 7.41174 10.0588ZM4.76467 13.2353C4.47228 13.2353 4.23526 12.9983 4.23526 12.7059C4.23526 12.4135 4.47228 12.1765 4.76467 12.1765H10.0588C10.3512 12.1765 10.5882 12.4135 10.5882 12.7059C10.5882 12.9983 10.3512 13.2353 10.0588 13.2353H4.76467ZM6.08822 15.3529C5.79582 15.3529 5.55881 15.1159 5.55881 14.8235C5.55881 14.5312 5.79582 14.2941 6.08822 14.2941H8.73529C9.02768 14.2941 9.26469 14.5312 9.26469 14.8235C9.26469 15.1159 9.02768 15.3529 8.73529 15.3529H6.08822Z" fill="#5F6269" stroke="#5F6269" stroke-width="0.2"/>
</g>
<defs>
<clipPath id="clip0_671_498">
<rect width="18" height="18" fill="white"/>
</clipPath>
</defs>
</svg>
