<svg width="20" height="20" viewBox="0 0 20 20" fill="none" xmlns="http://www.w3.org/2000/svg">
<path d="M18.2813 4.22503C17.9329 3.87543 17.5189 3.59804 17.0631 3.40877C16.6073 3.2195 16.1186 3.12207 15.625 3.12207C15.1315 3.12207 14.6428 3.2195 14.1869 3.40877C13.7311 3.59804 13.3171 3.87543 12.9688 4.22503L13.8563 5.11253C14.0889 4.87984 14.3652 4.69526 14.6692 4.56934C14.9732 4.44341 15.2991 4.37859 15.6281 4.37859C15.9572 4.37859 16.283 4.44341 16.5871 4.56934C16.8911 4.69526 17.1673 4.87984 17.4 5.11253C17.6327 5.34521 17.8173 5.62145 17.9432 5.92547C18.0691 6.22949 18.1339 6.55533 18.1339 6.8844C18.1339 7.21347 18.0691 7.53931 17.9432 7.84333C17.8173 8.14735 17.6327 8.42359 17.4 8.65628L12.4 13.6563C11.9309 14.1262 11.2943 14.3905 10.6303 14.3911C9.96635 14.3917 9.32932 14.1285 8.85939 13.6594C8.38946 13.1903 8.12512 12.5537 8.12454 11.8897C8.12395 11.2257 8.38716 10.5887 8.85626 10.1188L9.73751 9.23128L8.85626 8.34378L7.96876 9.23128C7.61916 9.57966 7.34177 9.99364 7.1525 10.4495C6.96323 10.9053 6.8658 11.394 6.8658 11.8875C6.8658 12.3811 6.96323 12.8698 7.1525 13.3256C7.34177 13.7814 7.61916 14.1954 7.96876 14.5438C8.67594 15.2419 9.63131 15.6308 10.625 15.625C11.1205 15.6271 11.6114 15.5309 12.0695 15.3421C12.5275 15.1533 12.9436 14.8756 13.2938 14.525L18.2938 9.52503C18.9944 8.82025 19.3866 7.86619 19.3842 6.87244C19.3819 5.87869 18.9852 4.9265 18.2813 4.22503Z" fill="#5F6269"/>
<path d="M2.61876 15.5125C2.38538 15.2802 2.20019 15.0041 2.07383 14.7C1.94746 14.396 1.88241 14.0699 1.88241 13.7407C1.88241 13.4114 1.94746 13.0853 2.07383 12.7813C2.20019 12.4772 2.38538 12.2011 2.61876 11.9688L7.61876 6.96878C7.85106 6.7354 8.12717 6.55021 8.43124 6.42384C8.73531 6.29748 9.06135 6.23243 9.39064 6.23243C9.71992 6.23243 10.046 6.29748 10.35 6.42384C10.6541 6.55021 10.9302 6.7354 11.1625 6.96878C11.3944 7.2029 11.577 7.48119 11.6994 7.78716C11.8217 8.09313 11.8815 8.42055 11.875 8.75003C11.8769 9.08053 11.8133 9.40813 11.6878 9.71388C11.5622 10.0196 11.3773 10.2974 11.1438 10.5313L9.81876 11.875L10.7063 12.7625L12.0313 11.4375C12.7366 10.7322 13.1328 9.77561 13.1328 8.77815C13.1328 7.78069 12.7366 6.82409 12.0313 6.11878C11.326 5.41347 10.3693 5.01723 9.37189 5.01723C8.37443 5.01723 7.41782 5.41347 6.71251 6.11878L1.71251 11.1188C1.36197 11.4673 1.08379 11.8816 0.893964 12.338C0.704138 12.7944 0.606415 13.2839 0.606415 13.7782C0.606415 14.2725 0.704138 14.7619 0.893964 15.2183C1.08379 15.6747 1.36197 16.089 1.71251 16.4375C2.42428 17.1303 3.38182 17.5124 4.37501 17.5C5.37695 17.501 6.33858 17.1055 7.05001 16.4L6.16251 15.5125C5.93022 15.7459 5.6541 15.9311 5.35003 16.0575C5.04596 16.1838 4.71992 16.2489 4.39064 16.2489C4.06135 16.2489 3.73531 16.1838 3.43124 16.0575C3.12717 15.9311 2.85106 15.7459 2.61876 15.5125Z" fill="#5F6269"/>
</svg>
